<svg width="157" height="156" viewBox="0 0 157 156" fill="none" xmlns="http://www.w3.org/2000/svg">
<circle cx="78" cy="78" r="78" fill="#FDFEFE"/>
<path d="M118.484 130.682C121.095 134.122 125.999 134.901 129.245 132.053C139.016 123.477 146.329 112.54 150.389 100.306C155.252 85.6539 155.202 69.8908 150.246 55.268C145.29 40.6451 135.682 27.9104 122.794 18.8828C109.905 9.8551 94.3962 4.99619 78.4813 5C62.5664 5.00381 47.0597 9.87015 34.176 18.904C21.2924 27.9378 11.6906 40.6771 6.74225 55.3023C1.79387 69.9275 1.75191 85.6906 6.62238 100.34C10.689 112.572 18.0068 123.506 27.7831 132.077C31.03 134.924 35.9337 134.142 38.5426 130.701L52.7865 111.914C55.5167 108.313 54.6307 103.213 51.6664 99.8017C48.7592 96.4566 46.5312 92.5794 45.1321 88.3711C42.8711 81.5702 42.8906 74.2525 45.1877 67.463C47.4849 60.6735 51.9424 54.7595 57.9234 50.5657C63.9044 46.3719 71.1031 44.1128 78.4913 44.1111C85.8795 44.1093 93.0794 46.365 99.0626 50.5559C105.046 54.7468 109.506 60.6587 111.807 67.4471C114.108 74.2354 114.131 81.5532 111.873 88.3551C110.476 92.564 108.25 96.4422 105.345 99.7887C102.382 103.201 101.499 108.302 104.231 111.902L118.484 130.682Z" fill="#002768" stroke="#FDFEFE" stroke-width="5"/>
<path d="M95.7168 90.3613C92.4007 95.5397 91.4275 103.425 92.7901 109.421L98.0862 132.729C98.6935 135.401 99.433 138.521 97.5186 140.482V140.482C96.5309 141.494 95.3164 142 93.875 142H63.125C61.737 142 60.5358 141.494 59.5215 140.482V140.482C57.5719 138.538 58.3079 135.395 58.9181 132.71L64.2099 109.421C65.5725 103.425 64.5993 95.5397 61.2832 90.3613V90.3613C59.0944 86.9434 58 83.1562 58 79C58 73.2031 60.002 68.2539 64.0059 64.1523C68.0098 60.0508 72.8411 58 78.5 58C84.1589 58 88.9902 60.0508 92.9941 64.1523C96.998 68.2539 99 73.2031 99 79C99 83.1562 97.9056 86.9434 95.7168 90.3613V90.3613Z" fill="#002768"/>
</svg>
